<svg width="21" height="21" viewBox="0 0 21 21" fill="none" xmlns="http://www.w3.org/2000/svg">
<path d="M10.5 0C16.2896 0 21 4.7104 21 10.5C21 16.2896 16.2896 21 10.5 21C4.7104 21 0 16.2896 0 10.5C0 4.7104 4.7104 0 10.5 0ZM10.5 20.125C15.8073 20.125 20.125 15.8073 20.125 10.5C20.125 5.19274 15.8073 0.874986 10.5 0.874986C5.19274 0.874986 0.874987 5.19274 0.874987 10.5C0.874987 15.8073 5.19274 20.125 10.5 20.125Z" fill="#030303"/>
<path d="M4.81249 10.0628H15.1314L11.9407 6.87207C11.7698 6.70115 11.7698 6.4243 11.9407 6.25343C12.1116 6.08252 12.3884 6.08252 12.5593 6.25343L16.4968 10.1909C16.6677 10.3618 16.6677 10.6387 16.4968 10.8096L12.5593 14.7471C12.4739 14.8325 12.3619 14.8752 12.25 14.8752C12.138 14.8752 12.0261 14.8325 11.9406 14.7471C11.7697 14.5761 11.7697 14.2993 11.9406 14.1284L15.1313 10.9377H4.81249C4.57066 10.9377 4.37498 10.7421 4.37498 10.5002C4.37498 10.2584 4.57066 10.0628 4.81249 10.0628Z" fill="#030303"/>
</svg>
