<svg width="40" height="40" viewBox="0 0 40 40" fill="none" xmlns="http://www.w3.org/2000/svg">
<g clip-path="url(#clip0)">
<path d="M28.1763 18.1246L21.2126 13.0258C21.0783 12.9275 20.8959 12.9275 20.7617 13.0258L13.7979 18.1246C13.6278 18.2491 13.5908 18.488 13.7154 18.658C13.8399 18.8281 14.0788 18.865 14.2489 18.7405L20.9871 13.8069L27.7253 18.7405C27.7933 18.7903 27.8722 18.8143 27.9505 18.8143C28.068 18.8143 28.184 18.7602 28.2588 18.658C28.3834 18.488 28.3464 18.2491 28.1763 18.1246Z" fill="#255E45"/>
<path d="M26.3314 18.827C26.1206 18.827 25.9497 18.9979 25.9497 19.2087V25.2844H22.8961V21.9679C22.8961 20.9154 22.0398 20.0592 20.9874 20.0592C19.935 20.0592 19.0788 20.9155 19.0788 21.9679V25.2845H16.0251V19.2087C16.0251 18.9979 15.8542 18.827 15.6434 18.827C15.4326 18.827 15.2617 18.9979 15.2617 19.2087V25.6662C15.2617 25.877 15.4326 26.0479 15.6434 26.0479H19.4605C19.6612 26.0479 19.8255 25.8928 19.8407 25.6959C19.8416 25.687 19.8422 25.6772 19.8422 25.6662V21.9679C19.8422 21.3364 20.3559 20.8227 20.9874 20.8227C21.6189 20.8227 22.1327 21.3364 22.1327 21.9679V25.6662C22.1327 25.6772 22.1333 25.6868 22.1342 25.6956C22.1492 25.8926 22.3135 26.0479 22.5144 26.0479H26.3314C26.5422 26.0479 26.7131 25.877 26.7131 25.6662V19.2087C26.7131 18.9979 26.5422 18.827 26.3314 18.827Z" fill="#255E45"/>
</g>
<g filter="url(#filter0_d)">
<circle cx="20.9872" cy="19.5" r="15.5551" stroke="#164E35" stroke-width="0.864173"/>
</g>
<defs>
<filter id="filter0_d" x="0.679134" y="0.920298" width="38.8878" height="38.8878" filterUnits="userSpaceOnUse" color-interpolation-filters="sRGB">
<feFlood flood-opacity="0" result="BackgroundImageFix"/>
<feColorMatrix in="SourceAlpha" type="matrix" values="0 0 0 0 0 0 0 0 0 0 0 0 0 0 0 0 0 0 127 0"/>
<feOffset dx="-0.864173" dy="0.864173"/>
<feGaussianBlur stdDeviation="1.72835"/>
<feColorMatrix type="matrix" values="0 0 0 0 0 0 0 0 0 0 0 0 0 0 0 0 0 0 0.29 0"/>
<feBlend mode="normal" in2="BackgroundImageFix" result="effect1_dropShadow"/>
<feBlend mode="normal" in="SourceGraphic" in2="effect1_dropShadow" result="shape"/>
</filter>
<clipPath id="clip0">
<rect width="14.6909" height="14.6909" fill="white" transform="translate(13.6416 12.1545)"/>
</clipPath>
</defs>
</svg>
