<svg width="20" height="19" viewBox="0 0 20 19" fill="none" xmlns="http://www.w3.org/2000/svg">
<path fill-rule="evenodd" clip-rule="evenodd" d="M14.2049 12.1063H13.3028L12.9892 11.8153C14.097 10.6078 14.7707 9.04238 14.7707 7.3272C14.7707 3.5145 11.4644 0.423985 7.38537 0.423985C3.30637 0.423985 0 3.5145 0 7.3272C0 11.1399 3.30637 14.2304 7.38537 14.2304C9.22035 14.2304 10.894 13.6017 12.1859 12.5673L12.4995 12.8583V13.6994L18.1782 19L19.8723 17.4165L14.2049 12.1063ZM7.38587 12.1064C4.56125 12.1064 2.27292 9.96742 2.27292 7.3272C2.27292 4.68805 4.56125 2.54806 7.38587 2.54806C10.2094 2.54806 12.4988 4.68805 12.4988 7.3272C12.4988 9.96742 10.2094 12.1064 7.38587 12.1064Z" fill="white"/>
</svg>
