<svg width="31" height="31" viewBox="0 0 31 31" fill="none" xmlns="http://www.w3.org/2000/svg">
<g clip-path="url(#clip0)">
<path d="M30.1387 19.2222C29.564 18.3775 28.4065 18.1539 27.5592 18.7233L23.703 21.3041L23.6918 13.2712L25.0315 14.5262C25.3164 14.793 25.6878 14.9398 26.0778 14.9398C26.0785 14.9398 26.0794 14.9398 26.0801 14.9398C26.5012 14.9392 26.9077 14.7628 27.1955 14.4556C27.475 14.1571 27.6217 13.7677 27.6083 13.359C27.595 12.9502 27.4233 12.5711 27.1248 12.2916L24.585 9.91234C24.4111 9.74945 24.1382 9.75836 23.9753 9.93223C23.8125 10.1061 23.8214 10.379 23.9952 10.5419L26.535 12.9211C26.6654 13.0432 26.7403 13.2087 26.7462 13.3871C26.7519 13.5655 26.688 13.7355 26.5659 13.8658C26.4384 14.0019 26.2655 14.0769 26.0788 14.0772C26.0785 14.0772 26.0782 14.0772 26.0778 14.0772C25.9077 14.0772 25.7456 14.0131 25.6212 13.8966C25.6212 13.8965 25.6212 13.8965 25.6212 13.8965L15.5361 4.449C15.3699 4.29337 15.1113 4.29361 14.9455 4.44983L4.88662 13.9256C4.75672 14.048 4.58687 14.1121 4.4084 14.1071C4.22993 14.1018 4.06427 14.0273 3.94187 13.8973C3.81946 13.7674 3.75496 13.5975 3.76033 13.4191C3.76564 13.2406 3.84018 13.075 3.97008 12.9526L14.7808 2.76859C15.037 2.52715 15.4391 2.52656 15.696 2.76735L22.0207 8.69226C22.1945 8.85509 22.4675 8.84624 22.6304 8.67237C22.7932 8.49851 22.7843 8.22561 22.6105 8.06272L16.2858 2.13781C15.6972 1.58635 14.7763 1.58759 14.1893 2.1407L10.7286 5.40084L10.7276 4.81934C10.7274 4.63603 10.6557 4.46382 10.5259 4.33445C10.3964 4.20526 10.2244 4.13414 10.0415 4.13414C10.0411 4.13414 10.0408 4.13414 10.0405 4.13414L7.56485 4.13763C7.38154 4.13786 7.20938 4.20951 7.07996 4.33929C6.95059 4.46907 6.87942 4.64146 6.87971 4.82483L6.88656 9.02023L3.3786 12.3248C3.08091 12.6052 2.91029 12.9847 2.89808 13.3935C2.88586 13.8023 3.03358 14.1913 3.31398 14.4889C3.59431 14.7866 3.97385 14.9572 4.38267 14.9695C4.39831 14.9699 4.41395 14.9702 4.42959 14.9702C4.82117 14.9702 5.19198 14.8232 5.47816 14.5535L6.81485 13.2943L6.82016 17.0886C6.38768 17.0256 5.95012 16.9926 5.51056 16.9926H4.77254V16.734C4.77254 15.8658 4.06616 15.1594 3.19795 15.1594H1.81776C0.949548 15.1593 0.243164 15.8656 0.243164 16.7339V23.4925C0.243164 23.7307 0.43627 23.9238 0.674466 23.9238C0.912662 23.9238 1.10577 23.7307 1.10577 23.4925V16.7339C1.10577 16.3413 1.42517 16.0219 1.81776 16.0219H3.19789C3.59047 16.0219 3.90988 16.3413 3.90988 16.7339V17.4238V26.2645V26.9476C3.90988 27.3402 3.59047 27.6596 3.19789 27.6596H1.81776C1.42517 27.6596 1.10577 27.3402 1.10577 26.9476V26.1929C1.10577 25.9547 0.912662 25.7616 0.674466 25.7616C0.43627 25.7616 0.243164 25.9547 0.243164 26.1929V26.9476C0.243164 27.8158 0.949548 28.5222 1.81776 28.5222H3.19789C4.0661 28.5222 4.77248 27.8159 4.77248 26.9476V26.889L11.0888 29.2809C11.1005 29.2853 11.1123 29.2892 11.1244 29.2925C11.399 29.3701 11.6735 29.409 11.9445 29.409C12.0911 29.409 12.2367 29.3976 12.3808 29.3748L21.6632 28.0368C21.6654 28.0365 21.6675 28.0361 21.6697 28.0358C22.4589 27.9097 23.2034 27.5761 23.8226 27.071C23.828 27.0667 23.8333 27.0621 23.8385 27.0575L29.8353 21.664C30.5337 21.044 30.664 19.9942 30.1387 19.2222ZM9.86524 4.99704L9.86725 6.21222L7.7478 8.20879L7.74255 4.99993L9.86524 4.99704ZM15.242 5.35552L22.828 12.462L22.8412 21.8808L21.62 22.6981L20.3269 22.6255L20.2927 22.2821C20.1724 21.0723 19.2793 20.0992 18.0985 19.8669L18.0907 14.2635C18.0901 13.8335 17.74 13.484 17.31 13.484C17.3097 13.484 17.3094 13.484 17.309 13.484L13.1982 13.4898C12.9896 13.4901 12.7937 13.5716 12.6465 13.7192C12.4993 13.8668 12.4184 14.063 12.4186 14.2715L12.4255 19.157C11.6112 18.9709 10.8337 18.6634 10.1068 18.2382C10.0161 18.1852 9.9245 18.1339 9.83213 18.0841C9.79613 18.0647 9.75954 18.0465 9.72325 18.0275C9.66706 17.9982 9.61099 17.9687 9.55422 17.9405C9.50901 17.9181 9.46327 17.8969 9.41771 17.8752C9.36938 17.8522 9.3211 17.829 9.27241 17.8069C9.22283 17.7844 9.17285 17.763 9.12292 17.7414C9.0773 17.7217 9.03168 17.7019 8.98576 17.6829C8.93441 17.6617 8.88277 17.6414 8.83108 17.6211C8.78522 17.6032 8.7393 17.5854 8.69321 17.5681C8.64204 17.549 8.59064 17.5305 8.53911 17.5124C8.49078 17.4954 8.44238 17.4787 8.39375 17.4625C8.34441 17.446 8.29496 17.4299 8.24526 17.4143C8.19233 17.3976 8.13915 17.3816 8.08592 17.3659C8.04018 17.3524 7.9945 17.339 7.94852 17.3262C7.8885 17.3095 7.82819 17.2939 7.76781 17.2784C7.73954 17.2711 7.71145 17.2629 7.683 17.2559L7.67633 12.4827L15.242 5.35552ZM17.2357 19.759L13.6283 19.3437L13.2884 19.3045L13.2814 14.3523L17.2282 14.3468L17.2357 19.759ZM29.2606 21.0208L23.2697 26.409C22.7704 26.8139 22.1716 27.0816 21.5368 27.1835L12.2585 28.5209C12.2565 28.5212 12.2546 28.5215 12.2527 28.5218L12.2463 28.5228C11.9652 28.5673 11.6724 28.5486 11.3761 28.4672L4.77254 25.9665V17.8551H5.51056C6.1388 17.8551 6.7628 17.9277 7.37044 18.0685C7.39305 18.0738 7.41559 18.0792 7.43814 18.0846C7.51279 18.1026 7.58728 18.1211 7.6614 18.1412C7.66789 18.143 7.67433 18.1448 7.68082 18.1466C7.75512 18.1669 7.82913 18.1883 7.9029 18.2107C7.91612 18.2147 7.9294 18.2187 7.94256 18.2227C8.02106 18.247 8.0992 18.2723 8.17692 18.2989C8.18495 18.3017 8.19292 18.3045 8.20094 18.3073C8.36283 18.3632 8.52312 18.4241 8.68141 18.4901C8.69002 18.4937 8.69864 18.4973 8.70726 18.501C8.78616 18.5341 8.8646 18.5684 8.9425 18.6041C8.94457 18.605 8.94669 18.606 8.94876 18.607C9.02406 18.6416 9.09884 18.6775 9.17314 18.7144C9.18188 18.7187 9.19067 18.7229 9.1994 18.7273C9.272 18.7636 9.344 18.8012 9.41559 18.8397C9.4291 18.8469 9.44256 18.8544 9.45607 18.8617C9.52831 18.901 9.60013 18.9412 9.67125 18.9828C10.6976 19.5832 11.815 19.972 12.9922 20.1386C12.996 20.1392 12.9996 20.1396 13.0033 20.1401L17.8358 20.6964C17.8625 20.7003 17.8891 20.7047 17.9154 20.7096C18.6268 20.8433 19.1883 21.3689 19.3762 22.0535C19.404 22.1549 19.4236 22.2598 19.4344 22.3674L19.4536 22.5604L10.3967 21.7669C10.1596 21.7462 9.95017 21.9216 9.92939 22.1589C9.90856 22.3962 10.0841 22.6054 10.3214 22.6262L19.8966 23.4651C19.8989 23.4653 19.9011 23.4652 19.9033 23.4654C19.9056 23.4656 19.9078 23.4659 19.9101 23.4661L21.7158 23.5675C21.7239 23.5679 21.7319 23.5681 21.74 23.5681C21.7485 23.5681 21.757 23.5668 21.7655 23.5662C21.7751 23.5656 21.7847 23.5653 21.7943 23.5641C21.8071 23.5624 21.8197 23.5597 21.8323 23.5569C21.8414 23.5549 21.8505 23.5534 21.8593 23.5508C21.8731 23.5469 21.8864 23.5415 21.8998 23.5361C21.907 23.5332 21.9144 23.531 21.9215 23.5277C21.9416 23.5184 21.9612 23.5077 21.9799 23.4952L23.5127 22.4694C23.5127 22.4693 23.5128 22.4693 23.5129 22.4692L28.0396 19.4397C28.4951 19.1336 29.1168 19.2537 29.4255 19.7074C29.7077 20.1221 29.6377 20.686 29.2606 21.0208Z" fill="#538CD1"/>
</g>
<defs>
<clipPath id="clip0">
<rect width="30.2171" height="30.2171" fill="white" transform="translate(0.243164 0.45874)"/>
</clipPath>
</defs>
</svg>
