<svg width="30" height="30" viewBox="0 0 30 30" fill="none" xmlns="http://www.w3.org/2000/svg">
<g clip-path="url(#clip0)">
<path d="M2.84054 15.8311H1.5714C0.754616 15.8311 0.0900879 16.4956 0.0900879 17.3124V26.7041C0.0900879 27.5209 0.754616 28.1855 1.5714 28.1855H2.84054C3.65732 28.1855 4.32185 27.5209 4.32185 26.7041V17.3124C4.32185 16.4956 3.65732 15.8311 2.84054 15.8311ZM3.4617 26.7041C3.4617 27.0466 3.18308 27.3253 2.84054 27.3253H1.5714C1.22885 27.3253 0.950234 27.0466 0.950234 26.7041V17.3124C0.950234 16.9698 1.22885 16.6912 1.5714 16.6912H2.84054C3.18308 16.6912 3.4617 16.9698 3.4617 17.3124V26.7041Z" fill="#9452A1"/>
<path d="M29.1168 19.5815C28.578 18.7896 27.4929 18.58 26.6985 19.1137L24.4237 20.6361C24.2366 19.9038 23.8624 19.2233 23.3348 18.6728C22.7143 18.0254 21.9057 17.5805 21.0332 17.4018C20.5304 15.7939 19.1356 14.5978 17.461 14.354C16.7759 13.7821 15.9371 13.434 15.0537 13.3499V11.9983L16.0761 11.1132C16.5823 11.3381 17.7584 11.7999 19.212 11.9689C19.5727 12.0109 19.9256 12.0317 20.2708 12.0317C22.3867 12.0317 24.2001 11.2479 25.5596 9.73373C28.0157 6.998 28.0073 2.75656 28.0058 2.57733C28.0058 2.57566 28.0054 2.57406 28.0054 2.5724C28.005 2.55396 28.0036 2.53557 28.0009 2.51741C27.9994 2.50658 27.9971 2.49604 27.9948 2.48539C27.9943 2.48281 27.9937 2.48029 27.9931 2.47771C27.9604 2.33273 27.8618 2.20723 27.7182 2.16049C27.5448 2.10401 27.3641 2.15172 27.2535 2.2955C27.2112 2.33434 26.9218 2.58099 26.0964 2.8823C25.2779 3.18108 23.7474 3.59689 21.1041 3.88089C17.918 4.22315 16.581 6.05749 16.0204 7.53594C15.5542 8.76578 15.5425 9.93639 15.5629 10.4199L15.0538 10.8606V9.99018C15.0641 9.93639 15.0641 9.88129 15.0538 9.82779V3.41152C15.0538 3.17397 14.8613 2.98145 14.6237 2.98145C14.3862 2.98145 14.1937 3.17397 14.1937 3.41152V8.96083L13.8058 8.6251C13.8235 8.1693 13.8075 7.10564 13.3841 5.98869C12.8674 4.6259 11.6355 2.93517 8.70084 2.61994C6.29494 2.36143 4.89955 1.98383 4.15265 1.71248C3.40501 1.44097 3.13761 1.21843 3.09528 1.18028C2.9853 1.03587 2.80515 0.988325 2.63141 1.04435C2.48683 1.09097 2.38797 1.21808 2.35572 1.36438C2.35537 1.36581 2.35503 1.3673 2.35468 1.36879C2.35228 1.38013 2.34976 1.39136 2.34821 1.40287C2.34552 1.42098 2.34414 1.43931 2.34374 1.45769C2.34369 1.45935 2.34334 1.46096 2.34334 1.46262C2.34197 1.62725 2.33418 5.52316 4.5916 8.03761C5.84321 9.43163 7.51189 10.153 9.45908 10.153C9.77642 10.153 10.1013 10.1339 10.4329 10.0953C11.7471 9.94252 12.8156 9.52872 13.2926 9.31849L14.1936 10.0986V11.7525C14.1892 11.7883 14.189 11.8245 14.1936 11.8604V13.3525C13.3188 13.4404 12.4887 13.7871 11.8096 14.354C10.135 14.5978 8.74025 15.794 8.23743 17.402C8.013 17.4479 7.79177 17.5129 7.57553 17.5939C7.2012 17.5429 6.82279 17.5167 6.4429 17.5167H5.88869C5.65115 17.5167 5.45862 17.7093 5.45862 17.9468C5.45862 18.1844 5.65115 18.3769 5.88869 18.3769H6.4429C6.82279 18.3769 7.20085 18.4067 7.57422 18.4634C7.72888 18.4868 7.88211 18.5152 8.03407 18.5479C8.06249 18.554 8.0909 18.56 8.1192 18.5665C8.15517 18.5747 8.19108 18.5832 8.22689 18.5919C8.27265 18.603 8.31831 18.6146 8.36385 18.6266C8.38573 18.6323 8.40778 18.6378 8.42961 18.6437C8.50092 18.6632 8.57195 18.6836 8.64264 18.7052C8.65478 18.7089 8.66681 18.7128 8.67896 18.7166C8.74494 18.7371 8.8107 18.7583 8.87612 18.7806C8.88465 18.7835 8.89319 18.7863 8.90172 18.7893C9.05261 18.8413 9.20194 18.898 9.34938 18.9596C9.35563 18.9623 9.36187 18.9649 9.36811 18.9675C9.4404 18.9979 9.51229 19.0293 9.58367 19.062C9.58487 19.0625 9.58607 19.0631 9.58728 19.0636C9.66008 19.097 9.73237 19.1316 9.80415 19.1673C9.81291 19.1717 9.82156 19.1762 9.83027 19.1806C9.88904 19.2102 9.94746 19.2406 10.0055 19.2717C10.0218 19.2805 10.0382 19.2892 10.0545 19.298C10.1207 19.3341 10.1866 19.371 10.2518 19.4091C11.1992 19.9634 12.2308 20.3224 13.3178 20.4762C13.3215 20.4767 13.3252 20.4772 13.3289 20.4776L17.7719 20.9891C18.5434 21.1007 19.1356 21.7196 19.2128 22.4957L19.2297 22.6656L11.4298 22.3571C11.3966 22.352 11.3752 22.3339 11.3628 22.3191C11.3497 22.3033 11.3347 22.2768 11.3381 22.2397C11.3595 22.0031 11.1852 21.7939 10.9486 21.7725C10.7117 21.7509 10.5029 21.9255 10.4814 22.162C10.4581 22.4198 10.5365 22.6712 10.7023 22.87C10.8681 23.0688 11.1013 23.1911 11.3591 23.2145C11.3663 23.2152 11.3736 23.2157 11.3809 23.2159L20.1764 23.5638L21.3421 23.6292C21.3501 23.6297 21.3582 23.6299 21.3662 23.6299C21.3755 23.6299 21.3847 23.6285 21.3939 23.6279C21.4023 23.6273 21.4106 23.6271 21.4189 23.626C21.4338 23.6242 21.4483 23.6211 21.4629 23.6177C21.4699 23.6161 21.477 23.615 21.4839 23.613C21.4999 23.6084 21.5153 23.6025 21.5306 23.5961C21.5358 23.594 21.5413 23.5924 21.5465 23.5899C21.5668 23.5806 21.5866 23.5698 21.6053 23.5572L24.3532 21.7182C24.3534 21.7181 24.3536 21.7179 24.3538 21.7177L27.1774 19.828C27.581 19.5568 28.1319 19.6633 28.4054 20.0652C28.6554 20.4327 28.5934 20.9324 28.259 21.2293L22.7508 26.1833C22.2965 26.5516 21.7516 26.795 21.1742 26.8877L12.6428 28.1176C12.639 28.1181 12.6348 28.1188 12.6311 28.1193C12.378 28.1593 12.114 28.1426 11.8466 28.0695L6.05229 25.8752C5.83009 25.7911 5.58189 25.9029 5.4978 26.1251C5.41371 26.3472 5.52558 26.5955 5.74767 26.6796L11.5602 28.8807C11.5719 28.8851 11.5837 28.8891 11.5958 28.8924C11.8509 28.9645 12.106 29.0006 12.3586 29.0006C12.4957 29.0006 12.6321 28.99 12.7672 28.9686C12.7677 28.9685 12.7683 28.9684 12.769 28.9683L21.3003 27.7385C21.3024 27.7382 21.3045 27.7379 21.3066 27.7376C22.0381 27.6208 22.7282 27.3117 23.3022 26.8434C23.3076 26.839 23.3129 26.8346 23.318 26.8299L28.8321 21.8706C29.487 21.2894 29.6092 20.3052 29.1168 19.5815ZM24.9196 9.15908C23.5185 10.7197 21.6396 11.3786 19.3369 11.1175C18.3058 11.0006 17.4123 10.7161 16.8459 10.499C17.1601 10.2629 17.4651 10.0452 17.7612 9.84457C18.2278 10.0506 19.3257 10.4735 20.4767 10.4735C20.6568 10.4735 20.8383 10.4632 21.0187 10.44C21.2543 10.4097 21.4208 10.1942 21.3905 9.95868C21.3602 9.72308 21.1446 9.55621 20.9092 9.58692C20.1058 9.68991 19.2466 9.47453 18.6562 9.27038C19.9467 8.48745 21.0708 7.99797 22.1065 7.54739C22.2034 7.50523 22.2993 7.46353 22.3944 7.42195C22.7241 7.52311 23.4961 7.71752 24.5638 7.71752C24.5876 7.71752 24.6118 7.71741 24.6359 7.71723C24.8734 7.71529 25.0643 7.52116 25.0625 7.28367C25.0605 7.04738 24.8684 6.85715 24.6324 6.85715C24.6312 6.85715 24.63 6.85715 24.6288 6.85715C24.2909 6.85961 23.9858 6.84013 23.7189 6.81023C24.8915 6.21862 25.9539 5.48874 27.0118 4.14977C26.8042 5.56469 26.2741 7.65044 24.9196 9.15908ZM16.8247 7.84085C17.5157 6.01808 18.9864 4.97349 21.1959 4.73611C23.648 4.47267 25.2271 4.09392 26.2336 3.74473C24.9943 5.26179 23.7484 5.88736 22.2008 6.56764C22.1996 6.56816 22.1984 6.56873 22.1971 6.56925C22.0551 6.63168 21.9107 6.69452 21.7634 6.75862C21.4302 6.90354 21.0879 7.05259 20.7345 7.21333C20.7976 6.88533 20.9116 6.47926 21.118 6.07937C21.2269 5.86829 21.1441 5.60886 20.933 5.49997C20.7219 5.39113 20.4625 5.47379 20.3536 5.68493C19.9514 6.46431 19.8392 7.25526 19.808 7.65365C18.7983 8.15733 17.6895 8.79809 16.4305 9.73499C16.4615 9.22805 16.5585 8.54284 16.8247 7.84085ZM10.3335 9.24088C8.22683 9.4857 6.51066 8.8875 5.23161 7.4629C4.03895 6.13453 3.54775 4.31337 3.34532 3.02808C3.84482 3.64225 4.37462 4.1476 4.96176 4.57274C5.35637 4.85846 5.76325 5.0979 6.18163 5.31437C5.91917 5.33872 5.6193 5.35109 5.287 5.33998C5.05203 5.3315 4.8508 5.51812 4.84284 5.7555C4.83494 5.99288 5.02099 6.1917 5.25836 6.19966C5.35105 6.20276 5.44149 6.20419 5.52982 6.20419C6.4976 6.20419 7.20211 6.0304 7.51361 5.93594C7.59701 5.97237 7.68065 6.0088 7.76485 6.04546C8.69414 6.4497 9.70098 6.88779 10.8533 7.5805C10.3077 7.76272 9.54008 7.94172 8.82548 7.83501C8.59068 7.80006 8.37169 7.96194 8.33664 8.19686C8.30158 8.43177 8.46357 8.65064 8.69849 8.6857C8.88884 8.71411 9.08033 8.7266 9.27051 8.7266C10.3161 8.7266 11.3128 8.3486 11.7528 8.15601C12.0019 8.32511 12.2576 8.50704 12.5205 8.70346C12.0082 8.89598 11.231 9.13657 10.3335 9.24088ZM9.91774 6.08584C9.88382 5.67731 9.75998 4.86179 9.30883 4.09627C9.18813 3.89172 8.92464 3.82361 8.71997 3.94407C8.51536 4.06471 8.44719 4.32832 8.56777 4.53293C8.79123 4.91214 8.91519 5.31409 8.9841 5.64311C8.68377 5.5073 8.39237 5.38048 8.10803 5.25675C6.54234 4.57555 5.31943 4.04271 4.11141 2.60608C5.04075 2.91569 6.46031 3.2442 8.60896 3.47505C10.6052 3.68951 11.9377 4.62876 12.5695 6.26663C12.8046 6.87628 12.8978 7.47717 12.9316 7.93748C11.8114 7.11005 10.8211 6.53751 9.91774 6.08584ZM21.2467 22.7624L20.0974 22.6979L20.0687 22.4106C19.9521 21.237 19.055 20.302 17.8872 20.1366C17.8835 20.1361 17.8799 20.1356 17.8761 20.1352L13.4329 19.6237C12.4592 19.4852 11.5351 19.1632 10.6862 18.6666C10.6108 18.6225 10.5348 18.58 10.4584 18.5384C10.4382 18.5274 10.4178 18.5169 10.3976 18.5061C10.3393 18.475 10.2808 18.4445 10.2218 18.4148C10.2011 18.4043 10.1801 18.394 10.1592 18.3837C10.0977 18.3533 10.0358 18.3237 9.97359 18.2949C9.95697 18.2872 9.94036 18.2795 9.92369 18.2718C9.85054 18.2385 9.77694 18.2062 9.70293 18.1751C9.69714 18.1727 9.69141 18.1701 9.68563 18.1677C9.51722 18.0972 9.34669 18.0323 9.17404 17.9731C9.16958 17.9716 9.16505 17.9702 9.16058 17.9686C9.1033 17.9491 9.04596 17.9296 8.98822 17.9114C8.99143 17.9013 8.99435 17.8911 8.99687 17.8807C9.34555 16.4399 10.5691 15.359 12.0414 15.1911C12.1294 15.181 12.2121 15.1441 12.2783 15.0854C12.9288 14.5077 13.7658 14.1896 14.6353 14.1896C15.5048 14.1896 16.342 14.5077 16.9924 15.0854C17.0586 15.1441 17.1413 15.181 17.2293 15.1911C18.7016 15.359 19.9251 16.4399 20.2738 17.8807C20.3154 18.0528 20.4582 18.1817 20.6336 18.2057C22.1715 18.4157 23.4057 19.6354 23.6542 21.1511L21.2467 22.7624Z" fill="#9452A1"/>
</g>
<defs>
<clipPath id="clip0">
<rect width="29.3284" height="29.3284" fill="white" transform="translate(0.0898438 0.347168)"/>
</clipPath>
</defs>
</svg>
