<svg width="31" height="32" viewBox="0 0 31 32" fill="none" xmlns="http://www.w3.org/2000/svg">
<g clip-path="url(#clip0)">
<path d="M23.6067 13.7456C23.606 13.74 23.6056 13.7343 23.6047 13.7288C23.6008 13.7012 23.5955 13.6736 23.5881 13.6464C23.588 13.6462 23.5879 13.6459 23.5878 13.6455C23.5808 13.6201 23.5719 13.595 23.5619 13.5702C23.559 13.5631 23.5559 13.5563 23.5528 13.5493C23.5449 13.5314 23.536 13.5137 23.5265 13.4964C23.5223 13.4888 23.5183 13.4812 23.5138 13.4737C23.5114 13.4697 23.5094 13.4655 23.5069 13.4615C23.4968 13.4454 23.4857 13.4303 23.4745 13.4154C23.4724 13.4126 23.4707 13.4096 23.4686 13.4069C23.4515 13.3847 23.433 13.3642 23.4137 13.3447C23.41 13.341 23.4061 13.3376 23.4023 13.334C23.3855 13.3178 23.3681 13.3026 23.3499 13.2883C23.3452 13.2847 23.3407 13.2811 23.3359 13.2776C23.3116 13.2596 23.2865 13.2427 23.2603 13.2282L13.1886 7.50318L18.9876 3.85158L28.7094 9.37758L24.615 11.9558C24.2955 12.1569 24.1996 12.5791 24.4008 12.8985C24.6019 13.2181 25.024 13.314 25.3435 13.1128L30.4042 9.92613C30.6077 9.79809 30.7289 9.57255 30.7234 9.33219C30.718 9.09182 30.5868 8.8721 30.3778 8.75328L19.3074 2.46065C19.0884 2.33609 18.8186 2.34224 18.6053 2.47644L11.4984 6.95162C11.497 6.95251 11.4955 6.95346 11.4941 6.95435L7.94276 9.19061C7.94112 9.19163 7.93948 9.19266 7.93791 9.19368L0.826205 13.6719C0.622754 13.8 0.501544 14.0255 0.507013 14.2659C0.512414 14.5062 0.643605 14.726 0.852662 14.8448L11.9231 21.1374C12.028 21.1971 12.1445 21.2268 12.2609 21.2268C12.3876 21.2268 12.5141 21.1916 12.6251 21.1216L17.6859 17.9349C18.0054 17.7338 18.1013 17.3116 17.9001 16.9922C17.6991 16.6726 17.2768 16.5766 16.9574 16.7779L12.2429 19.7465L2.52109 14.2204L8.32013 10.5688L18.6889 16.4625V24.2685C18.6889 24.5175 18.8242 24.7467 19.0421 24.867C19.1452 24.9239 19.2589 24.9521 19.3725 24.9521C19.4993 24.9521 19.6258 24.9169 19.7368 24.847L23.2927 22.6079C23.4915 22.4827 23.6121 22.2643 23.6121 22.0294V13.8257C23.6121 13.8216 23.6114 13.8178 23.6112 13.8138C23.6108 13.7911 23.6093 13.7684 23.6067 13.7456ZM20.0562 23.0302V16.0649C20.0562 15.819 19.9241 15.5921 19.7103 15.4706L9.63272 9.7423L11.8759 8.3297L21.5977 13.8558L20.7465 14.3917C20.427 14.5929 20.3311 15.015 20.5323 15.3345C20.6622 15.5409 20.8843 15.6539 21.1114 15.6539C21.2359 15.6539 21.3619 15.62 21.475 15.5487L22.2447 15.0641V21.6521L20.0562 23.0302Z" fill="#9452A1"/>
<path d="M29.6751 11.5036L24.6144 14.6903C24.2949 14.8914 24.199 15.3136 24.4002 15.633C24.53 15.8395 24.7522 15.9525 24.9793 15.9525C25.1038 15.9525 25.2298 15.9185 25.3429 15.8473L30.4036 12.6606C30.7231 12.4595 30.8191 12.0374 30.6179 11.7179C30.4167 11.3984 29.9946 11.3024 29.6751 11.5036Z" fill="#9452A1"/>
<path d="M16.9565 19.5123L12.242 22.481L1.52743 16.3906C1.19942 16.2041 0.781852 16.3187 0.595286 16.6471C0.408721 16.9754 0.523504 17.3927 0.851788 17.5793L11.9222 23.8719C12.0271 23.9316 12.1436 23.9613 12.26 23.9613C12.3867 23.9613 12.5132 23.9261 12.6243 23.8561L17.685 20.6694C18.0045 20.4683 18.1004 20.0461 17.8992 19.7267C17.6982 19.4071 17.276 19.3111 16.9565 19.5123Z" fill="#9452A1"/>
<path d="M29.6751 14.2383L24.6144 17.4249C24.2949 17.626 24.199 18.0482 24.4002 18.3677C24.53 18.5741 24.7522 18.6871 24.9793 18.6871C25.1038 18.6871 25.2298 18.6531 25.3429 18.5819L30.4036 15.3953C30.7231 15.1941 30.8191 14.772 30.6179 14.4525C30.4167 14.1329 29.9946 14.037 29.6751 14.2383Z" fill="#9452A1"/>
<path d="M16.9565 22.247L12.242 25.2156L1.52743 19.1253C1.19942 18.9388 0.781852 19.0533 0.595286 19.3818C0.408721 19.71 0.523504 20.1273 0.851788 20.3139L11.9222 26.6065C12.0271 26.6662 12.1436 26.6959 12.26 26.6959C12.3867 26.6959 12.5132 26.6607 12.6243 26.5907L17.685 23.404C18.0045 23.2029 18.1004 22.7807 17.8992 22.4613C17.6982 22.1416 17.276 22.0457 16.9565 22.247Z" fill="#9452A1"/>
<path d="M29.6751 16.9728L24.6144 20.1595C24.2949 20.3606 24.199 20.7828 24.4002 21.1022C24.53 21.3087 24.7522 21.4217 24.9793 21.4217C25.1038 21.4217 25.2298 21.3877 25.3429 21.3165L30.4036 18.1298C30.7231 17.9287 30.8191 17.5066 30.6179 17.1871C30.4167 16.8676 29.9946 16.7717 29.6751 16.9728Z" fill="#9452A1"/>
<path d="M16.9565 24.9815L12.242 27.9502L1.52743 21.8598C1.19942 21.6733 0.781852 21.7879 0.595286 22.1163C0.408721 22.4445 0.523504 22.8619 0.851788 23.0485L11.9222 29.3411C12.0271 29.4008 12.1436 29.4304 12.26 29.4304C12.3867 29.4304 12.5132 29.3952 12.6243 29.3253L17.685 26.1386C18.0045 25.9374 18.1004 25.5153 17.8992 25.1958C17.6982 24.8762 17.276 24.7803 16.9565 24.9815Z" fill="#9452A1"/>
</g>
<defs>
<clipPath id="clip0">
<rect width="30.2171" height="30.2171" fill="white" transform="translate(0.505859 0.792358)"/>
</clipPath>
</defs>
</svg>
