<svg width="36" height="36" viewBox="0 0 36 36" fill="none" xmlns="http://www.w3.org/2000/svg">
<path d="M20.8677 35.3461H15.5152C15.1779 35.3461 14.9043 35.0728 14.9043 34.7351V20.4615C14.9043 20.1242 15.1775 19.8506 15.5152 19.8506H20.8677C21.205 19.8506 21.4786 20.1238 21.4786 20.4615V34.7351C21.4786 35.0725 21.205 35.3461 20.8677 35.3461ZM16.1261 34.1242H20.2568V21.0724H16.1261V34.1242Z" fill="#164E35"/>
<path d="M31.216 35.3461H25.8631C25.5258 35.3461 25.2522 35.0728 25.2522 34.7352V11.5404C25.2522 11.203 25.5254 10.9294 25.8631 10.9294H31.216C31.5533 10.9294 31.8269 11.2027 31.8269 11.5404V34.7352C31.8269 35.0725 31.5536 35.3461 31.216 35.3461ZM26.474 34.1242H30.605V12.1513H26.474V34.1242Z" fill="#164E35"/>
<path d="M10.5192 35.3461H5.16671C4.82939 35.3461 4.55579 35.0729 4.55579 34.7352V27.5982C4.55579 27.2609 4.82903 26.9873 5.16671 26.9873H10.5192C10.8565 26.9873 11.1301 27.2605 11.1301 27.5982V34.7349C11.1301 35.0725 10.8569 35.3461 10.5192 35.3461ZM5.77763 34.1243H9.90827V28.2091H5.77763V34.1243Z" fill="#164E35"/>
<path d="M33.6539 35.3461H2.78243C2.44511 35.3461 2.17151 35.0729 2.17151 34.7352C2.17151 34.3979 2.44475 34.1243 2.78243 34.1243H33.6539C33.9912 34.1243 34.2648 34.3975 34.2648 34.7352C34.2648 35.0725 33.9915 35.3461 33.6539 35.3461Z" fill="#164E35"/>
<path d="M32.1585 7.38413C31.8212 7.38413 31.5476 7.11089 31.5476 6.77321V2.03165H26.806C26.4687 2.03165 26.1951 1.75841 26.1951 1.42073C26.1951 1.08305 26.4683 0.809814 26.806 0.809814H32.1585C32.4958 0.809814 32.7694 1.08305 32.7694 1.42073V6.77321C32.7694 7.11053 32.4958 7.38413 32.1585 7.38413Z" fill="#164E35"/>
<path d="M6.21285 22.1773C6.13257 22.1773 6.05229 22.1633 5.97885 22.1319C5.90541 22.1006 5.83593 22.0549 5.78013 21.9995C5.72073 21.9437 5.67897 21.8738 5.64765 21.8004C5.61597 21.7269 5.60193 21.6467 5.60193 21.5664C5.60193 21.5279 5.60553 21.4861 5.61237 21.4476C5.61957 21.4091 5.63361 21.3705 5.64765 21.3324C5.66169 21.2971 5.68257 21.2625 5.70309 21.2276C5.72757 21.1959 5.75205 21.1646 5.78013 21.1365C6.00333 20.9097 6.41517 20.9061 6.64233 21.1365C6.67365 21.1646 6.69813 21.1959 6.71901 21.2276C6.74349 21.2625 6.76077 21.2971 6.77481 21.3324C6.79209 21.3705 6.80289 21.4091 6.80973 21.4476C6.82017 21.4857 6.82377 21.5279 6.82377 21.5664C6.82377 21.7302 6.76113 21.8843 6.64233 21.9995C6.52713 22.1147 6.37341 22.1773 6.21285 22.1773Z" fill="#164E35"/>
<path d="M8.4157 19.9749C8.2591 19.9749 8.10322 19.9151 7.9837 19.7959C7.74502 19.5573 7.74502 19.1706 7.9837 18.9319L19.9868 6.92919C20.2255 6.69051 20.6121 6.69051 20.8508 6.92919L23.3186 9.39699L31.7264 0.988824C31.9651 0.750144 32.3517 0.750144 32.5904 0.988824C32.8291 1.2275 32.8291 1.61414 32.5904 1.85282L23.7503 10.6926C23.5116 10.9313 23.1249 10.9313 22.8863 10.6926L20.4185 8.22483L8.84734 19.7956C8.72818 19.9151 8.57194 19.9749 8.4157 19.9749Z" fill="#164E35"/>
</svg>
