<svg width="30" height="30" viewBox="0 0 30 30" fill="none" xmlns="http://www.w3.org/2000/svg">
<path d="M23.7579 22.4552C24.0028 22.4552 24.2023 22.6543 24.2023 22.8996H25.091C25.091 22.321 24.7182 21.8322 24.2023 21.6482V20.6777H23.3135V21.6482C22.7976 21.8322 22.4248 22.321 22.4248 22.8996C22.4248 23.6346 23.0229 24.2327 23.7579 24.2327C24.0028 24.2327 24.2023 24.4318 24.2023 24.6771C24.2023 24.9223 24.0028 25.1214 23.7579 25.1214C23.5131 25.1214 23.3135 24.9223 23.3135 24.6771H22.4248C22.4248 25.2556 22.7976 25.7444 23.3135 25.9284V26.8989H24.2023V25.9284C24.7182 25.7444 25.091 25.2556 25.091 24.6771C25.091 23.9421 24.4929 23.3439 23.7579 23.3439C23.5131 23.3439 23.3135 23.1449 23.3135 22.8996C23.3135 22.6543 23.5131 22.4552 23.7579 22.4552Z" fill="#D91935"/>
<path d="M23.7576 18.9003C22.2219 18.9003 20.851 19.6135 19.9543 20.7249L17.0921 19.8992V19.0514C17.5818 18.6679 17.9644 18.1564 18.1914 17.5672H18.4252C19.4055 17.5672 20.2027 16.77 20.2027 15.7897V12.6791C20.2027 9.73872 17.8106 7.34668 14.8702 7.34668C11.9298 7.34668 9.5378 9.73872 9.5378 12.6791V15.7897C9.5378 16.77 10.335 17.5672 11.3153 17.5672H11.5779C11.8081 18.1315 12.1791 18.6234 12.6484 19.0007V19.8992L9.12009 20.9168C7.79631 21.299 6.87158 22.5277 6.87158 23.9056V26.0102H19.409C20.22 27.5904 21.8624 28.6764 23.7576 28.6764C26.4527 28.6764 28.6457 26.4834 28.6457 23.7883C28.6457 21.0932 26.4527 18.9003 23.7576 18.9003ZM17.7924 21.0261L16.9134 23.0769L15.535 21.9744L16.7761 20.7333L17.7924 21.0261ZM14.8702 21.3825L13.5371 20.0494V19.5237C13.9535 19.6935 14.4081 19.789 14.8853 19.789H14.9635C15.4008 19.789 15.8176 19.7041 16.2033 19.5557V20.0494L14.8702 21.3825ZM18.4252 16.6784H18.4074C18.419 16.5629 18.4252 16.4456 18.4252 16.3269V14.901C18.9153 14.901 19.3139 15.2996 19.3139 15.7897C19.3139 16.2798 18.9153 16.6784 18.4252 16.6784ZM11.3153 16.6784C10.8251 16.6784 10.4265 16.2798 10.4265 15.7897C10.4265 15.2996 10.8251 14.901 11.3153 14.901H11.321C11.3202 14.9254 11.3153 14.9485 11.3153 14.9729V16.2341C11.3153 16.3847 11.3277 16.5327 11.3464 16.6784H11.3153ZM11.5232 14.0122H11.3153C10.99 14.0122 10.6892 14.1064 10.4265 14.2593V12.6791C10.4265 10.2289 12.42 8.23542 14.8702 8.23542C17.3205 8.23542 19.3139 10.2289 19.3139 12.6791V14.2593C19.0513 14.1064 18.7505 14.0122 18.4252 14.0122H17.9808H17.0921C15.755 14.0122 14.4294 13.5701 13.3594 12.768L13.1732 12.6284L12.9523 12.7022C12.2956 12.9208 11.789 13.4065 11.5232 14.0122ZM12.204 16.2341V14.9729C12.204 14.3975 12.5293 13.8807 13.0328 13.6283C14.2174 14.4504 15.6488 14.901 17.0921 14.901H17.5364V16.3269C17.5364 17.7458 16.3824 18.9003 14.9635 18.9003H14.8853C13.4069 18.9003 12.204 17.7045 12.204 16.2341ZM12.9639 20.7329L14.205 21.974L12.8266 23.0765L11.9476 21.0257L12.9639 20.7329ZM18.8695 23.7883C18.8695 24.2509 18.9384 24.6971 19.0588 25.1214H10.4265V23.344H9.5378V25.1214H7.76032V23.9056C7.76032 22.9218 8.42065 22.0442 9.36627 21.7709L11.0873 21.2741L12.4697 24.4998L14.8702 22.5801L17.2703 24.5002L18.6527 21.2745L19.4406 21.5016C19.0771 22.1846 18.8695 22.9623 18.8695 23.7883ZM23.7576 27.7877C21.5526 27.7877 19.7583 25.9937 19.7583 23.7883C19.7583 21.5829 21.5526 19.789 23.7576 19.789C25.9626 19.789 27.7569 21.5829 27.7569 23.7883C27.7569 25.9937 25.9626 27.7877 23.7576 27.7877Z" fill="#D91935"/>
<path d="M27.313 4.68018H21.9806C21.2456 4.68018 20.6475 5.2783 20.6475 6.01328V9.56823C20.6475 10.3032 21.2456 10.9013 21.9806 10.9013H22.4249V13.065L25.6702 10.9013H27.313C28.048 10.9013 28.6461 10.3032 28.6461 9.56823V6.01328C28.6461 5.2783 28.048 4.68018 27.313 4.68018ZM27.7574 9.56823C27.7574 9.81308 27.5578 10.0126 27.313 10.0126H25.4009L23.3137 11.4039V10.0126H21.9806C21.7357 10.0126 21.5362 9.81308 21.5362 9.56823V6.01328C21.5362 5.76844 21.7357 5.56891 21.9806 5.56891H27.313C27.5578 5.56891 27.7574 5.76844 27.7574 6.01328V9.56823Z" fill="#D91935"/>
<path d="M24.6468 7.16249L23.6279 6.14355L22.9995 6.77189L24.2024 7.9748V9.12394H25.0912V7.9748L26.2941 6.77189L25.6657 6.14355L24.6468 7.16249Z" fill="#D91935"/>
<path d="M7.31638 10.9013H7.76075C8.49574 10.9013 9.09386 10.3032 9.09386 9.56823V6.01328C9.09386 5.2783 8.49574 4.68018 7.76075 4.68018H2.42832C1.69334 4.68018 1.09521 5.2783 1.09521 6.01328V9.56823C1.09521 10.3032 1.69334 10.9013 2.42832 10.9013H4.07115L7.31638 13.065V10.9013ZM6.42764 11.4039L4.34044 10.0126H2.42832C2.18347 10.0126 1.98395 9.81308 1.98395 9.56823V6.01328C1.98395 5.76844 2.18347 5.56891 2.42832 5.56891H7.76075C8.0056 5.56891 8.20512 5.76844 8.20512 6.01328V9.56823C8.20512 9.81308 8.0056 10.0126 7.76075 10.0126H6.42764V11.4039Z" fill="#D91935"/>
<path d="M5.53919 7.68576L4.92508 6.45752H3.76172V9.12373H4.65046V7.8955L5.26457 9.12373H6.42793V6.45752H5.53919V7.68576Z" fill="#D91935"/>
<path d="M14.4263 2.4586C14.4263 2.21375 14.6259 2.01423 14.8707 2.01423C15.1156 2.01423 15.3151 2.21375 15.3151 2.4586V2.53458C15.3151 2.65323 15.2689 2.76521 15.1849 2.8492L14.4263 3.60773V4.68044H15.3151V3.97567L15.8132 3.47753C16.0652 3.22602 16.2038 2.89097 16.2038 2.53458V2.4586C16.2038 1.72361 15.6057 1.12549 14.8707 1.12549C14.1357 1.12549 13.5376 1.72361 13.5376 2.4586V2.90296H14.4263V2.4586Z" fill="#D91935"/>
<path d="M15.315 5.56885H14.4263V6.45759H15.315V5.56885Z" fill="#D91935"/>
</svg>
